# xmcd
#
# Track frame offsets:
#	150
#	20495
#	38022
#	53987
#	70312
#	84182
#	86907
#	104362
#	121335
#	139002
#	158417
#
# Disc length: 2320 seconds
#
# Revision: 1
# Processed by: cddbd v1.5.1PL0 Copyright (c) Steve Scherf et al.
# Submitted via: CDex 1.50Beta5
#
DISCID=86090e0b
DTITLE=Hi-Fi Set - Hi-Fi SET02_SINGS FEELINGS
DYEAR=1900
DGENRE=Pop
TTITLE0=フィーリング
TTITLE1=まぶしい貴方
TTITLE2=オン・エニィ・サンデイ
TTITLE3=君を行かせて
TTITLE4=SWING
TTITLE5=LITTLE BALOQUE
TTITLE6=海辺の避暑地に
TTITLE7=DANCE DANCE DANCE
TTITLE8=遠くからみちびいて
TTITLE9=愛こそすべて
TTITLE10=恋の日記
EXTD=
EXTT0=
EXTT1=
EXTT2=
EXTT3=
EXTT4=
EXTT5=
EXTT6=
EXTT7=
EXTT8=
EXTT9=
EXTT10=
PLAYORDER=
